<mxfile host="Electron" modified="2024-06-23T19:49:16.043Z" agent="Mozilla/5.0 (Windows NT 10.0; Win64; x64) AppleWebKit/537.36 (KHTML, like Gecko) draw.io/24.5.3 Chrome/124.0.6367.207 Electron/30.0.6 Safari/537.36" etag="pNIiqr8hrFACu-elcThO" version="24.5.3" type="device">
  <diagram id="07fea595-8f29-1299-0266-81d95cde20df" name="Page-1">
    <mxGraphModel dx="1687" dy="1125" grid="1" gridSize="10" guides="1" tooltips="1" connect="1" arrows="1" fold="1" page="1" pageScale="1" pageWidth="1169" pageHeight="827" background="#ffffff" math="0" shadow="0">
      <root>
        <mxCell id="0" />
        <mxCell id="1" parent="0" />
        <mxCell id="k4BbUaHCwSgezbctOqtj-11" value="" style="rounded=0;whiteSpace=wrap;html=1;" parent="1" vertex="1">
          <mxGeometry x="150" y="90" width="200" height="680" as="geometry" />
        </mxCell>
        <mxCell id="k4BbUaHCwSgezbctOqtj-12" value="" style="rounded=0;whiteSpace=wrap;html=1;" parent="1" vertex="1">
          <mxGeometry x="350" y="90" width="200" height="680" as="geometry" />
        </mxCell>
        <mxCell id="k4BbUaHCwSgezbctOqtj-13" value="" style="rounded=0;whiteSpace=wrap;html=1;" parent="1" vertex="1">
          <mxGeometry x="550" y="80" width="200" height="690" as="geometry" />
        </mxCell>
        <mxCell id="k4BbUaHCwSgezbctOqtj-14" value="" style="rounded=0;whiteSpace=wrap;html=1;" parent="1" vertex="1">
          <mxGeometry x="750" y="90" width="200" height="680" as="geometry" />
        </mxCell>
        <mxCell id="k4BbUaHCwSgezbctOqtj-15" value="Korisnik" style="rounded=0;whiteSpace=wrap;html=1;" parent="1" vertex="1">
          <mxGeometry x="350" y="60" width="200" height="30" as="geometry" />
        </mxCell>
        <mxCell id="k4BbUaHCwSgezbctOqtj-16" value="Izvršitelj" style="rounded=0;whiteSpace=wrap;html=1;" parent="1" vertex="1">
          <mxGeometry x="150" y="60" width="200" height="30" as="geometry" />
        </mxCell>
        <mxCell id="k4BbUaHCwSgezbctOqtj-17" value="Služba održavanja" style="rounded=0;whiteSpace=wrap;html=1;" parent="1" vertex="1">
          <mxGeometry x="550" y="60" width="200" height="30" as="geometry" />
        </mxCell>
        <mxCell id="k4BbUaHCwSgezbctOqtj-18" value="Administrator" style="rounded=0;whiteSpace=wrap;html=1;" parent="1" vertex="1">
          <mxGeometry x="750" y="60" width="200" height="30" as="geometry" />
        </mxCell>
        <mxCell id="k4BbUaHCwSgezbctOqtj-19" style="edgeStyle=orthogonalEdgeStyle;rounded=0;orthogonalLoop=1;jettySize=auto;html=1;exitX=0.5;exitY=1;exitDx=0;exitDy=0;entryX=0.5;entryY=0;entryDx=0;entryDy=0;" parent="1" source="k4BbUaHCwSgezbctOqtj-20" target="k4BbUaHCwSgezbctOqtj-22" edge="1">
          <mxGeometry relative="1" as="geometry" />
        </mxCell>
        <mxCell id="k4BbUaHCwSgezbctOqtj-20" value="" style="ellipse;whiteSpace=wrap;html=1;aspect=fixed;" parent="1" vertex="1">
          <mxGeometry x="635" y="110" width="30" height="30" as="geometry" />
        </mxCell>
        <mxCell id="k4BbUaHCwSgezbctOqtj-21" style="edgeStyle=orthogonalEdgeStyle;rounded=0;orthogonalLoop=1;jettySize=auto;html=1;exitX=0.5;exitY=1;exitDx=0;exitDy=0;entryX=0.5;entryY=0;entryDx=0;entryDy=0;" parent="1" source="k4BbUaHCwSgezbctOqtj-22" target="k4BbUaHCwSgezbctOqtj-24" edge="1">
          <mxGeometry relative="1" as="geometry" />
        </mxCell>
        <mxCell id="k4BbUaHCwSgezbctOqtj-22" value="Prijava" style="rounded=1;whiteSpace=wrap;html=1;" parent="1" vertex="1">
          <mxGeometry x="610" y="160" width="80" height="25" as="geometry" />
        </mxCell>
        <mxCell id="k4BbUaHCwSgezbctOqtj-23" style="edgeStyle=orthogonalEdgeStyle;rounded=0;orthogonalLoop=1;jettySize=auto;html=1;exitX=0.5;exitY=1;exitDx=0;exitDy=0;entryX=0.5;entryY=0;entryDx=0;entryDy=0;" parent="1" source="k4BbUaHCwSgezbctOqtj-24" target="k4BbUaHCwSgezbctOqtj-27" edge="1">
          <mxGeometry relative="1" as="geometry" />
        </mxCell>
        <mxCell id="k4BbUaHCwSgezbctOqtj-24" value="Pristupni podaci" style="rounded=1;whiteSpace=wrap;html=1;" parent="1" vertex="1">
          <mxGeometry x="590" y="210" width="120" height="30" as="geometry" />
        </mxCell>
        <mxCell id="k4BbUaHCwSgezbctOqtj-25" style="edgeStyle=orthogonalEdgeStyle;rounded=0;orthogonalLoop=1;jettySize=auto;html=1;exitX=1;exitY=0.5;exitDx=0;exitDy=0;entryX=1;entryY=0.5;entryDx=0;entryDy=0;" parent="1" edge="1">
          <mxGeometry relative="1" as="geometry">
            <Array as="points">
              <mxPoint x="740" y="290" />
              <mxPoint x="740" y="170" />
            </Array>
            <mxPoint x="635" y="289.9999999999999" as="sourcePoint" />
            <mxPoint x="692.8" y="170" as="targetPoint" />
          </mxGeometry>
        </mxCell>
        <mxCell id="k4BbUaHCwSgezbctOqtj-26" style="edgeStyle=orthogonalEdgeStyle;rounded=0;orthogonalLoop=1;jettySize=auto;html=1;exitX=0.5;exitY=1;exitDx=0;exitDy=0;" parent="1" source="k4BbUaHCwSgezbctOqtj-27" edge="1">
          <mxGeometry relative="1" as="geometry">
            <mxPoint x="649.9444444444445" y="340" as="targetPoint" />
          </mxGeometry>
        </mxCell>
        <mxCell id="k4BbUaHCwSgezbctOqtj-27" value="Provjera" style="rhombus;whiteSpace=wrap;html=1;" parent="1" vertex="1">
          <mxGeometry x="620" y="260" width="60" height="60" as="geometry" />
        </mxCell>
        <mxCell id="k4BbUaHCwSgezbctOqtj-30" value="" style="ellipse;whiteSpace=wrap;html=1;aspect=fixed;fillColor=#000000;" parent="1" vertex="1">
          <mxGeometry x="640" y="115" width="20" height="20" as="geometry" />
        </mxCell>
        <mxCell id="k4BbUaHCwSgezbctOqtj-31" value="Neuspjeh" style="text;html=1;strokeColor=none;fillColor=none;align=center;verticalAlign=middle;whiteSpace=wrap;rounded=0;" parent="1" vertex="1">
          <mxGeometry x="680" y="250" width="50" height="30" as="geometry" />
        </mxCell>
        <mxCell id="k4BbUaHCwSgezbctOqtj-32" value="" style="endArrow=none;html=1;rounded=0;" parent="1" edge="1">
          <mxGeometry width="50" height="50" relative="1" as="geometry">
            <mxPoint x="650" y="340" as="sourcePoint" />
            <mxPoint x="710" y="340" as="targetPoint" />
          </mxGeometry>
        </mxCell>
        <mxCell id="k4BbUaHCwSgezbctOqtj-33" value="" style="endArrow=none;html=1;rounded=0;" parent="1" edge="1">
          <mxGeometry width="50" height="50" relative="1" as="geometry">
            <mxPoint x="250" y="342" as="sourcePoint" />
            <mxPoint x="648" y="342" as="targetPoint" />
          </mxGeometry>
        </mxCell>
        <mxCell id="k4BbUaHCwSgezbctOqtj-34" value="Uspjeh" style="text;html=1;strokeColor=none;fillColor=none;align=center;verticalAlign=middle;whiteSpace=wrap;rounded=0;" parent="1" vertex="1">
          <mxGeometry x="650" y="320" width="50" height="20" as="geometry" />
        </mxCell>
        <mxCell id="k4BbUaHCwSgezbctOqtj-35" style="edgeStyle=orthogonalEdgeStyle;rounded=0;orthogonalLoop=1;jettySize=auto;html=1;exitX=0.5;exitY=1;exitDx=0;exitDy=0;entryX=0.5;entryY=0;entryDx=0;entryDy=0;" parent="1" source="k4BbUaHCwSgezbctOqtj-36" target="k4BbUaHCwSgezbctOqtj-42" edge="1">
          <mxGeometry relative="1" as="geometry" />
        </mxCell>
        <mxCell id="k4BbUaHCwSgezbctOqtj-36" value="Prijava naloga" style="rounded=1;whiteSpace=wrap;html=1;" parent="1" vertex="1">
          <mxGeometry x="380" y="360" width="140" height="30" as="geometry" />
        </mxCell>
        <mxCell id="k4BbUaHCwSgezbctOqtj-37" style="edgeStyle=orthogonalEdgeStyle;rounded=0;orthogonalLoop=1;jettySize=auto;html=1;exitX=0.5;exitY=1;exitDx=0;exitDy=0;entryX=0.5;entryY=0;entryDx=0;entryDy=0;" parent="1" source="k4BbUaHCwSgezbctOqtj-38" target="k4BbUaHCwSgezbctOqtj-53" edge="1">
          <mxGeometry relative="1" as="geometry" />
        </mxCell>
        <mxCell id="k4BbUaHCwSgezbctOqtj-38" value="Funkcije upravljanja zaposlenicima" style="rounded=1;whiteSpace=wrap;html=1;" parent="1" vertex="1">
          <mxGeometry x="780" y="355" width="140" height="40" as="geometry" />
        </mxCell>
        <mxCell id="k4BbUaHCwSgezbctOqtj-39" value="" style="endArrow=classic;html=1;rounded=0;entryX=1;entryY=0.5;entryDx=0;entryDy=0;" parent="1" target="k4BbUaHCwSgezbctOqtj-36" edge="1">
          <mxGeometry width="50" height="50" relative="1" as="geometry">
            <mxPoint x="590" y="340" as="sourcePoint" />
            <mxPoint x="700" y="390" as="targetPoint" />
            <Array as="points">
              <mxPoint x="590" y="375" />
            </Array>
          </mxGeometry>
        </mxCell>
        <mxCell id="k4BbUaHCwSgezbctOqtj-40" value="" style="endArrow=classic;html=1;rounded=0;entryX=0;entryY=0.5;entryDx=0;entryDy=0;" parent="1" target="k4BbUaHCwSgezbctOqtj-38" edge="1">
          <mxGeometry width="50" height="50" relative="1" as="geometry">
            <mxPoint x="710" y="340" as="sourcePoint" />
            <mxPoint x="700" y="390" as="targetPoint" />
            <Array as="points">
              <mxPoint x="710" y="375" />
            </Array>
          </mxGeometry>
        </mxCell>
        <mxCell id="k4BbUaHCwSgezbctOqtj-41" style="edgeStyle=orthogonalEdgeStyle;rounded=0;orthogonalLoop=1;jettySize=auto;html=1;exitX=0.5;exitY=1;exitDx=0;exitDy=0;entryX=0.5;entryY=0;entryDx=0;entryDy=0;" parent="1" source="k4BbUaHCwSgezbctOqtj-42" target="k4BbUaHCwSgezbctOqtj-44" edge="1">
          <mxGeometry relative="1" as="geometry" />
        </mxCell>
        <mxCell id="k4BbUaHCwSgezbctOqtj-42" value="Uređivanje naloga" style="rounded=1;whiteSpace=wrap;html=1;" parent="1" vertex="1">
          <mxGeometry x="380" y="414" width="140" height="26" as="geometry" />
        </mxCell>
        <mxCell id="5GmD-gw6SHlSAPlHTT5c-12" style="edgeStyle=orthogonalEdgeStyle;rounded=0;orthogonalLoop=1;jettySize=auto;html=1;exitX=0.5;exitY=1;exitDx=0;exitDy=0;entryX=0;entryY=0.5;entryDx=0;entryDy=0;" parent="1" source="k4BbUaHCwSgezbctOqtj-44" target="k4BbUaHCwSgezbctOqtj-64" edge="1">
          <mxGeometry relative="1" as="geometry" />
        </mxCell>
        <mxCell id="k4BbUaHCwSgezbctOqtj-44" value="Pregled svih prijavljenih naloga" style="rounded=1;whiteSpace=wrap;html=1;" parent="1" vertex="1">
          <mxGeometry x="380" y="465" width="140" height="30" as="geometry" />
        </mxCell>
        <mxCell id="k4BbUaHCwSgezbctOqtj-48" style="edgeStyle=orthogonalEdgeStyle;rounded=0;orthogonalLoop=1;jettySize=auto;html=1;exitX=0.5;exitY=1;exitDx=0;exitDy=0;entryX=0.5;entryY=0;entryDx=0;entryDy=0;" parent="1" edge="1">
          <mxGeometry relative="1" as="geometry">
            <mxPoint x="450" y="550" as="sourcePoint" />
          </mxGeometry>
        </mxCell>
        <mxCell id="k4BbUaHCwSgezbctOqtj-52" style="edgeStyle=orthogonalEdgeStyle;rounded=0;orthogonalLoop=1;jettySize=auto;html=1;exitX=0.5;exitY=1;exitDx=0;exitDy=0;entryX=0.5;entryY=0;entryDx=0;entryDy=0;" parent="1" source="k4BbUaHCwSgezbctOqtj-53" target="k4BbUaHCwSgezbctOqtj-55" edge="1">
          <mxGeometry relative="1" as="geometry" />
        </mxCell>
        <mxCell id="k4BbUaHCwSgezbctOqtj-53" value="Funkcije upravljanja tipovima naloga" style="rounded=1;whiteSpace=wrap;html=1;" parent="1" vertex="1">
          <mxGeometry x="780" y="424" width="140" height="40" as="geometry" />
        </mxCell>
        <mxCell id="5GmD-gw6SHlSAPlHTT5c-14" style="edgeStyle=orthogonalEdgeStyle;rounded=0;orthogonalLoop=1;jettySize=auto;html=1;exitX=0.5;exitY=1;exitDx=0;exitDy=0;entryX=1;entryY=0.5;entryDx=0;entryDy=0;" parent="1" source="k4BbUaHCwSgezbctOqtj-55" target="k4BbUaHCwSgezbctOqtj-64" edge="1">
          <mxGeometry relative="1" as="geometry" />
        </mxCell>
        <mxCell id="k4BbUaHCwSgezbctOqtj-55" value="Pregled svih naloga" style="rounded=1;whiteSpace=wrap;html=1;" parent="1" vertex="1">
          <mxGeometry x="780" y="490" width="140" height="40" as="geometry" />
        </mxCell>
        <mxCell id="k4BbUaHCwSgezbctOqtj-63" style="edgeStyle=orthogonalEdgeStyle;rounded=0;orthogonalLoop=1;jettySize=auto;html=1;exitX=0.5;exitY=1;exitDx=0;exitDy=0;entryX=0.5;entryY=0;entryDx=0;entryDy=0;" parent="1" source="k4BbUaHCwSgezbctOqtj-64" edge="1">
          <mxGeometry relative="1" as="geometry">
            <mxPoint x="650" y="725" as="targetPoint" />
          </mxGeometry>
        </mxCell>
        <mxCell id="k4BbUaHCwSgezbctOqtj-64" value="Odjava" style="rounded=1;whiteSpace=wrap;html=1;" parent="1" vertex="1">
          <mxGeometry x="610" y="680" width="80" height="25" as="geometry" />
        </mxCell>
        <mxCell id="k4BbUaHCwSgezbctOqtj-65" value="" style="ellipse;whiteSpace=wrap;html=1;aspect=fixed;" parent="1" vertex="1">
          <mxGeometry x="635" y="725" width="30" height="30" as="geometry" />
        </mxCell>
        <mxCell id="k4BbUaHCwSgezbctOqtj-66" value="" style="ellipse;whiteSpace=wrap;html=1;aspect=fixed;fillColor=#000000;" parent="1" vertex="1">
          <mxGeometry x="640" y="730" width="20" height="20" as="geometry" />
        </mxCell>
        <mxCell id="k4BbUaHCwSgezbctOqtj-72" style="edgeStyle=orthogonalEdgeStyle;rounded=0;orthogonalLoop=1;jettySize=auto;html=1;exitX=0.5;exitY=1;exitDx=0;exitDy=0;entryX=0.5;entryY=0;entryDx=0;entryDy=0;" parent="1" edge="1">
          <mxGeometry relative="1" as="geometry">
            <mxPoint x="450" y="605" as="sourcePoint" />
          </mxGeometry>
        </mxCell>
        <mxCell id="k4BbUaHCwSgezbctOqtj-74" style="edgeStyle=orthogonalEdgeStyle;rounded=0;orthogonalLoop=1;jettySize=auto;html=1;entryX=0.5;entryY=0;entryDx=0;entryDy=0;" parent="1" target="5GmD-gw6SHlSAPlHTT5c-4" edge="1">
          <mxGeometry relative="1" as="geometry">
            <mxPoint x="249.5" y="390" as="sourcePoint" />
            <mxPoint x="249.5" y="410" as="targetPoint" />
          </mxGeometry>
        </mxCell>
        <mxCell id="k4BbUaHCwSgezbctOqtj-92" value="" style="edgeStyle=orthogonalEdgeStyle;rounded=0;orthogonalLoop=1;jettySize=auto;html=1;" parent="1" edge="1">
          <mxGeometry relative="1" as="geometry">
            <mxPoint x="450" y="720" as="sourcePoint" />
          </mxGeometry>
        </mxCell>
        <mxCell id="k4BbUaHCwSgezbctOqtj-93" value="" style="edgeStyle=orthogonalEdgeStyle;rounded=0;orthogonalLoop=1;jettySize=auto;html=1;" parent="1" edge="1">
          <mxGeometry relative="1" as="geometry">
            <mxPoint x="450" y="720" as="sourcePoint" />
          </mxGeometry>
        </mxCell>
        <mxCell id="k4BbUaHCwSgezbctOqtj-76" style="edgeStyle=orthogonalEdgeStyle;rounded=0;orthogonalLoop=1;jettySize=auto;html=1;entryX=0.5;entryY=0;entryDx=0;entryDy=0;" parent="1" target="5GmD-gw6SHlSAPlHTT5c-5" edge="1">
          <mxGeometry relative="1" as="geometry">
            <mxPoint x="249.89999999999998" y="445" as="sourcePoint" />
            <mxPoint x="249.89999999999998" y="465" as="targetPoint" />
          </mxGeometry>
        </mxCell>
        <mxCell id="5GmD-gw6SHlSAPlHTT5c-3" value="Pregled dodijeljenih naloga" style="rounded=1;whiteSpace=wrap;html=1;" parent="1" vertex="1">
          <mxGeometry x="180" y="360" width="140" height="30" as="geometry" />
        </mxCell>
        <mxCell id="5GmD-gw6SHlSAPlHTT5c-4" value="Rad na nalogu" style="rounded=1;whiteSpace=wrap;html=1;" parent="1" vertex="1">
          <mxGeometry x="180" y="415" width="140" height="30" as="geometry" />
        </mxCell>
        <mxCell id="5GmD-gw6SHlSAPlHTT5c-5" value="Unos i obrada izvještaja" style="rounded=1;whiteSpace=wrap;html=1;" parent="1" vertex="1">
          <mxGeometry x="180" y="470" width="140" height="40" as="geometry" />
        </mxCell>
        <mxCell id="5GmD-gw6SHlSAPlHTT5c-13" style="edgeStyle=orthogonalEdgeStyle;rounded=0;orthogonalLoop=1;jettySize=auto;html=1;exitX=0.5;exitY=1;exitDx=0;exitDy=0;entryX=0;entryY=0.75;entryDx=0;entryDy=0;" parent="1" source="5GmD-gw6SHlSAPlHTT5c-6" target="k4BbUaHCwSgezbctOqtj-64" edge="1">
          <mxGeometry relative="1" as="geometry" />
        </mxCell>
        <mxCell id="5GmD-gw6SHlSAPlHTT5c-6" value="Pregled izvršenih naloga" style="rounded=1;whiteSpace=wrap;html=1;" parent="1" vertex="1">
          <mxGeometry x="180" y="535" width="140" height="30" as="geometry" />
        </mxCell>
        <mxCell id="5GmD-gw6SHlSAPlHTT5c-10" style="edgeStyle=orthogonalEdgeStyle;rounded=0;orthogonalLoop=1;jettySize=auto;html=1;entryX=0.5;entryY=0;entryDx=0;entryDy=0;" parent="1" edge="1">
          <mxGeometry relative="1" as="geometry">
            <mxPoint x="250.89999999999998" y="510" as="sourcePoint" />
            <mxPoint x="251" y="535" as="targetPoint" />
          </mxGeometry>
        </mxCell>
        <mxCell id="HdpYbrm6uEsl6m3RPSN3-6" style="edgeStyle=orthogonalEdgeStyle;rounded=0;orthogonalLoop=1;jettySize=auto;html=1;entryX=0.5;entryY=0;entryDx=0;entryDy=0;" edge="1" parent="1">
          <mxGeometry relative="1" as="geometry">
            <mxPoint x="252" y="342" as="sourcePoint" />
            <mxPoint x="250" y="360" as="targetPoint" />
          </mxGeometry>
        </mxCell>
      </root>
    </mxGraphModel>
  </diagram>
</mxfile>
